<svg width="721.205" height="95.201" viewBox="0 0 721.205 95.201" xmlns="http://www.w3.org/2000/svg"><g id="svgGroup" stroke-linecap="round" fill-rule="evenodd" font-size="9pt" stroke="#FFFFF0" stroke-width="0.25mm" fill="white" style="stroke:#FFFFF0;stroke-width:0.25mm;fill:#FFFFF0"><path d="M 411.6 51.001 L 420.4 51.001 Q 420.4 55.101 422.3 58.551 Q 424.2 62.001 427.85 64.051 A 15.195 15.195 0 0 0 432.079 65.62 Q 433.871 66.011 435.934 66.084 A 27.224 27.224 0 0 0 436.9 66.101 A 23.823 23.823 0 0 0 441.215 65.735 Q 443.628 65.29 445.533 64.304 A 11.942 11.942 0 0 0 447.9 62.701 Q 451.8 59.301 451.8 54.201 A 16.052 16.052 0 0 0 451.587 51.509 Q 451.327 49.981 450.749 48.746 A 8.449 8.449 0 0 0 450 47.451 Q 448.2 44.901 445.15 43.301 A 35.599 35.599 0 0 0 441.545 41.671 A 46.766 46.766 0 0 0 438.15 40.501 Q 434.2 39.301 429.9 37.801 A 45.158 45.158 0 0 1 425.037 35.818 Q 422.646 34.665 420.787 33.341 A 19.325 19.325 0 0 1 417.9 30.851 A 14.126 14.126 0 0 1 414.283 23.428 A 19.885 19.885 0 0 1 414 20.001 A 22.313 22.313 0 0 1 413.996 19.603 Q 413.996 14.246 416.6 10.051 Q 419.3 5.701 424.25 3.251 A 22.885 22.885 0 0 1 430.404 1.27 A 31.77 31.77 0 0 1 436 0.801 A 30.315 30.315 0 0 1 441.713 1.314 A 22.497 22.497 0 0 1 447.65 3.301 A 19.636 19.636 0 0 1 453.199 7.401 A 18.221 18.221 0 0 1 455.35 10.201 A 18.863 18.863 0 0 1 458.152 19.076 A 22.784 22.784 0 0 1 458.2 20.201 L 449.4 20.201 A 11.787 11.787 0 0 0 448.484 15.7 A 14.412 14.412 0 0 0 447.9 14.451 A 11.403 11.403 0 0 0 444.287 10.405 A 14.07 14.07 0 0 0 443.35 9.801 A 12.293 12.293 0 0 0 439.793 8.423 Q 437.928 8.001 435.7 8.001 Q 430 7.901 426.35 10.901 Q 422.7 13.901 422.7 19.201 A 12.718 12.718 0 0 0 422.975 21.928 Q 423.537 24.489 425.25 26.101 Q 427.349 28.077 430.837 29.476 A 29.448 29.448 0 0 0 432.4 30.051 A 2770.342 2770.342 0 0 0 436.693 31.493 Q 438.892 32.23 441.34 33.047 A 4813.159 4813.159 0 0 0 443 33.601 A 55.058 55.058 0 0 1 448.825 36.068 A 45.31 45.31 0 0 1 452 37.801 A 17.943 17.943 0 0 1 457.304 42.57 A 17.288 17.288 0 0 1 458.25 44.001 Q 460.5 47.801 460.5 53.701 A 18.437 18.437 0 0 1 457.9 63.151 Q 455.3 67.601 450.05 70.401 A 22.156 22.156 0 0 1 444.546 72.411 Q 441.959 73.004 438.952 73.152 A 41.703 41.703 0 0 1 436.9 73.201 Q 429.2 73.201 423.5 70.401 A 22.057 22.057 0 0 1 417.519 66.172 A 19.986 19.986 0 0 1 414.7 62.601 A 20.679 20.679 0 0 1 411.748 53.812 A 26.05 26.05 0 0 1 411.6 51.001 Z M 639.9 55.301 L 634.9 60.001 A 8.324 8.324 0 0 0 636.095 60.717 Q 636.799 61.067 637.65 61.351 A 15.271 15.271 0 0 0 638.79 61.677 Q 640.04 61.987 641.808 62.262 A 59.712 59.712 0 0 0 642.4 62.351 Q 644.773 62.696 648.612 63.069 A 311.963 311.963 0 0 0 651.1 63.301 A 44.384 44.384 0 0 1 656.208 63.936 Q 662.293 65.083 665.4 67.901 A 12.897 12.897 0 0 1 669.668 77.036 A 17.595 17.595 0 0 1 669.7 78.101 A 15.588 15.588 0 0 1 667.495 86.057 A 18.519 18.519 0 0 1 667.35 86.301 A 15.734 15.734 0 0 1 663.436 90.629 A 21.342 21.342 0 0 1 660.15 92.701 A 20.498 20.498 0 0 1 655.38 94.41 Q 653.092 94.942 650.412 95.116 A 41.793 41.793 0 0 1 647.7 95.201 A 43.939 43.939 0 0 1 641.748 94.817 A 32.38 32.38 0 0 1 635.8 93.451 A 20.61 20.61 0 0 1 631.69 91.575 A 15.364 15.364 0 0 1 627.7 88.151 A 12.654 12.654 0 0 1 625.056 82.244 A 17.402 17.402 0 0 1 624.8 79.201 Q 624.8 76.62 626.075 73.656 A 21.111 21.111 0 0 1 626.3 73.151 Q 627.51 70.53 630.412 68.136 A 25.256 25.256 0 0 1 631.9 67.001 A 25.203 25.203 0 0 1 630.099 66.185 Q 629.022 65.642 628.15 65.051 Q 626.6 64.001 625.3 62.701 L 625.3 60.401 L 633.8 52.001 A 16.222 16.222 0 0 1 627.94 40.125 A 21.749 21.749 0 0 1 627.9 38.801 A 18 18 0 0 1 629.088 32.222 A 17.023 17.023 0 0 1 630.2 29.901 A 16.187 16.187 0 0 1 635.963 24.085 A 19.669 19.669 0 0 1 636.9 23.551 A 19.077 19.077 0 0 1 642.111 21.717 Q 644.33 21.266 646.868 21.209 A 32.898 32.898 0 0 1 647.6 21.201 A 26.637 26.637 0 0 1 652.064 21.56 A 21.239 21.239 0 0 1 655.4 22.401 L 673.7 22.401 L 673.7 28.701 L 664.4 29.101 A 16.421 16.421 0 0 1 667.275 37.781 A 20.198 20.198 0 0 1 667.3 38.801 A 17.596 17.596 0 0 1 665.978 45.645 A 16.902 16.902 0 0 1 664.95 47.701 A 16.738 16.738 0 0 1 658.786 53.751 A 19.985 19.985 0 0 1 658.25 54.051 A 18.676 18.676 0 0 1 653.12 55.876 Q 650.578 56.401 647.6 56.401 A 27.954 27.954 0 0 1 642.978 56.033 A 22.844 22.844 0 0 1 639.9 55.301 Z M 680.5 56.501 L 689.1 56.501 A 11.524 11.524 0 0 0 692.265 62.335 A 14.791 14.791 0 0 0 693.25 63.251 A 11.383 11.383 0 0 0 697.762 65.556 Q 699.423 65.999 701.381 66.082 A 21.678 21.678 0 0 0 702.3 66.101 A 19.801 19.801 0 0 0 705.13 65.913 Q 708.323 65.451 710.1 63.851 A 7.959 7.959 0 0 0 711.762 61.806 A 6.696 6.696 0 0 0 712.6 58.501 A 9.607 9.607 0 0 0 712.371 56.322 Q 712.044 54.92 711.251 53.948 A 5.244 5.244 0 0 0 709.35 52.501 A 24.706 24.706 0 0 0 707.06 51.593 Q 704.256 50.626 700.2 49.801 Q 696.2 49.001 692.2 47.501 Q 688.2 46.001 685.5 43.251 A 9.264 9.264 0 0 1 682.969 38.142 A 13.053 13.053 0 0 1 682.8 36.001 A 14.164 14.164 0 0 1 683.938 30.256 A 13.631 13.631 0 0 1 687.65 25.351 A 16.441 16.441 0 0 1 694.198 21.995 Q 696.612 21.35 699.461 21.229 A 31.552 31.552 0 0 1 700.8 21.201 A 25.868 25.868 0 0 1 706.524 21.801 A 18.02 18.02 0 0 1 713.75 25.151 A 14.983 14.983 0 0 1 719.098 33.567 A 20.963 20.963 0 0 1 719.6 36.401 L 711.3 36.401 A 9.837 9.837 0 0 0 710.432 33.392 A 8.231 8.231 0 0 0 708.05 30.451 A 9.569 9.569 0 0 0 704.606 28.773 Q 703.239 28.404 701.624 28.324 A 18.509 18.509 0 0 0 700.7 28.301 Q 697.634 28.301 695.519 29.183 A 7.719 7.719 0 0 0 693.75 30.201 A 6.323 6.323 0 0 0 691.971 32.285 Q 691.321 33.538 691.301 35.1 A 7.77 7.77 0 0 0 691.3 35.201 A 4.793 4.793 0 0 0 693.184 39.064 A 7.958 7.958 0 0 0 694.45 39.901 A 21.987 21.987 0 0 0 697.005 41.058 Q 698.352 41.576 699.96 42.035 A 52.654 52.654 0 0 0 703 42.801 A 75.432 75.432 0 0 1 710.705 44.896 A 68.229 68.229 0 0 1 711.75 45.251 Q 715.9 46.701 718.55 49.551 Q 720.792 51.963 721.137 56.2 A 19.743 19.743 0 0 1 721.2 57.801 Q 721.292 63.962 716.945 68.136 A 16.793 16.793 0 0 1 716.15 68.851 Q 711 73.201 702.2 73.201 Q 693.3 73.201 687.4 68.701 Q 681.5 64.201 680.5 56.501 Z M 579.2 72.001 L 570.8 72.001 L 570.8 22.401 L 578.4 22.401 L 578.9 31.301 Q 581.3 26.601 585.8 23.901 A 19.076 19.076 0 0 1 594.594 21.243 A 23.165 23.165 0 0 1 596 21.201 A 23.464 23.464 0 0 1 602.101 21.953 A 17.155 17.155 0 0 1 610.05 26.551 Q 615.3 31.901 615.3 43.001 L 615.3 72.001 L 606.9 72.001 L 606.9 43.901 Q 606.9 28.401 594.1 28.401 A 14.396 14.396 0 0 0 587.948 29.694 A 14.199 14.199 0 0 0 583.45 33.051 A 15.113 15.113 0 0 0 580.197 38.897 Q 579.512 41.123 579.297 43.788 A 31.374 31.374 0 0 0 579.2 46.301 L 579.2 72.001 Z M 245.8 30.701 L 245.8 0.001 L 254.2 0.001 L 254.2 72.001 L 246.6 72.001 L 245.8 63.801 Q 243.4 67.401 238.9 70.301 A 17.412 17.412 0 0 1 233.29 72.606 Q 231.007 73.127 228.363 73.192 A 30.99 30.99 0 0 1 227.6 73.201 Q 220.2 73.201 214.65 69.801 Q 209.1 66.401 206.05 60.501 A 27.366 27.366 0 0 1 203.203 50.862 A 34.094 34.094 0 0 1 203 47.101 A 31.01 31.01 0 0 1 203.875 39.598 A 25.656 25.656 0 0 1 206.1 33.751 Q 209.2 27.901 214.7 24.551 A 22.755 22.755 0 0 1 223.208 21.528 A 29.824 29.824 0 0 1 227.7 21.201 A 25.333 25.333 0 0 1 233.618 21.866 A 20.543 20.543 0 0 1 238.5 23.701 Q 243.2 26.201 245.8 30.701 Z M 365.5 30.701 L 365.5 0.001 L 373.9 0.001 L 373.9 72.001 L 366.3 72.001 L 365.5 63.801 Q 363.1 67.401 358.6 70.301 A 17.412 17.412 0 0 1 352.99 72.606 Q 350.707 73.127 348.063 73.192 A 30.99 30.99 0 0 1 347.3 73.201 Q 339.9 73.201 334.35 69.801 Q 328.8 66.401 325.75 60.501 A 27.366 27.366 0 0 1 322.903 50.862 A 34.094 34.094 0 0 1 322.7 47.101 A 31.01 31.01 0 0 1 323.575 39.598 A 25.656 25.656 0 0 1 325.8 33.751 Q 328.9 27.901 334.4 24.551 A 22.755 22.755 0 0 1 342.908 21.528 A 29.824 29.824 0 0 1 347.4 21.201 A 25.333 25.333 0 0 1 353.318 21.866 A 20.543 20.543 0 0 1 358.2 23.701 Q 362.9 26.201 365.5 30.701 Z M 170.7 42.101 L 184.1 42.101 L 184.1 41.501 Q 184.1 36.921 182.412 33.905 A 10.002 10.002 0 0 0 180.7 31.651 A 11.392 11.392 0 0 0 174.703 28.581 A 16.421 16.421 0 0 0 171.6 28.301 A 16.421 16.421 0 0 0 167.203 28.867 A 13.355 13.355 0 0 0 163.15 30.751 A 10.419 10.419 0 0 0 159.006 36.624 A 14.072 14.072 0 0 0 158.7 37.901 L 150.1 37.901 Q 150.6 32.501 153.75 28.801 Q 156.9 25.101 161.6 23.151 Q 166.3 21.201 171.6 21.201 Q 182 21.201 187.25 26.751 A 18.74 18.74 0 0 1 191.987 36.108 A 27.019 27.019 0 0 1 192.5 41.501 L 192.5 72.001 L 185 72.001 L 184.5 63.101 A 19.521 19.521 0 0 1 178.849 69.877 A 22.905 22.905 0 0 1 178.35 70.251 A 14.338 14.338 0 0 1 173.655 72.452 Q 171.694 72.99 169.372 73.142 A 28.776 28.776 0 0 1 167.5 73.201 A 30.285 30.285 0 0 1 163.145 72.906 Q 160.82 72.567 158.882 71.841 A 15.997 15.997 0 0 1 157.2 71.101 A 16.18 16.18 0 0 1 153.721 68.738 A 13.065 13.065 0 0 1 151.1 65.501 Q 149.1 62.001 149.1 57.901 Q 149.1 50.301 154.9 46.201 Q 160.7 42.101 170.7 42.101 Z M 139.8 49.101 L 100.3 49.101 Q 100.563 54.105 102.406 57.606 A 14.496 14.496 0 0 0 102.95 58.551 A 16.786 16.786 0 0 0 106.068 62.269 A 14.672 14.672 0 0 0 108.85 64.201 Q 112.4 66.101 116.4 66.101 A 18.65 18.65 0 0 0 120.344 65.705 A 13.273 13.273 0 0 0 125.1 63.701 Q 128.6 61.301 130.2 57.201 L 138.5 57.201 Q 136.5 64.101 130.85 68.651 Q 125.2 73.201 116.4 73.201 Q 109.3 73.201 103.8 69.951 Q 98.3 66.701 95.15 60.901 A 25.499 25.499 0 0 1 92.462 52.942 A 34.251 34.251 0 0 1 92 47.201 A 33.298 33.298 0 0 1 92.681 40.317 A 25.702 25.702 0 0 1 95.1 33.551 Q 98.2 27.701 103.75 24.451 A 23.69 23.69 0 0 1 112.952 21.417 A 30.026 30.026 0 0 1 116.6 21.201 A 26.782 26.782 0 0 1 122.922 21.915 A 20.919 20.919 0 0 1 129.05 24.451 Q 134.3 27.701 137.1 33.001 Q 139.9 38.301 139.9 44.401 Q 139.9 45.501 139.85 46.601 A 45.831 45.831 0 0 0 139.814 47.698 Q 139.802 48.275 139.8 48.916 A 76.768 76.768 0 0 0 139.8 49.101 Z M 313.6 49.101 L 274.1 49.101 Q 274.363 54.105 276.206 57.606 A 14.496 14.496 0 0 0 276.75 58.551 A 16.786 16.786 0 0 0 279.868 62.269 A 14.672 14.672 0 0 0 282.65 64.201 Q 286.2 66.101 290.2 66.101 A 18.65 18.65 0 0 0 294.144 65.705 A 13.273 13.273 0 0 0 298.9 63.701 Q 302.4 61.301 304 57.201 L 312.3 57.201 Q 310.3 64.101 304.65 68.651 Q 299 73.201 290.2 73.201 Q 283.1 73.201 277.6 69.951 Q 272.1 66.701 268.95 60.901 A 25.499 25.499 0 0 1 266.262 52.942 A 34.251 34.251 0 0 1 265.8 47.201 A 33.298 33.298 0 0 1 266.481 40.317 A 25.702 25.702 0 0 1 268.9 33.551 Q 272 27.701 277.55 24.451 A 23.69 23.69 0 0 1 286.752 21.417 A 30.026 30.026 0 0 1 290.4 21.201 A 26.782 26.782 0 0 1 296.722 21.915 A 20.919 20.919 0 0 1 302.85 24.451 Q 308.1 27.701 310.9 33.001 Q 313.7 38.301 313.7 44.401 Q 313.7 45.501 313.65 46.601 A 45.831 45.831 0 0 0 313.614 47.698 Q 313.602 48.275 313.6 48.916 A 76.768 76.768 0 0 0 313.6 49.101 Z M 25.4 72.001 L 0 72.001 L 0 2.001 L 24.6 2.001 Q 30.408 2.001 34.645 3.449 A 19.536 19.536 0 0 1 36.85 4.351 A 18.75 18.75 0 0 1 40.945 7.002 A 15.08 15.08 0 0 1 44.1 10.751 A 17.314 17.314 0 0 1 46.495 19.334 A 20.562 20.562 0 0 1 46.5 19.801 A 20.498 20.498 0 0 1 46.069 24.133 Q 45.245 27.942 42.85 30.501 Q 39.2 34.401 34.1 35.901 Q 38 36.601 41.2 39.001 Q 44.4 41.401 46.25 45.001 A 16.934 16.934 0 0 1 48.096 52.499 A 19.763 19.763 0 0 1 48.1 52.901 Q 48.1 58.201 45.5 62.551 A 17.352 17.352 0 0 1 39.947 68.226 A 22.006 22.006 0 0 1 37.8 69.451 A 23.003 23.003 0 0 1 31.956 71.403 Q 29.337 71.922 26.33 71.991 A 40.6 40.6 0 0 1 25.4 72.001 Z M 499.1 72.001 L 491.5 72.001 A 22.612 22.612 0 0 1 487.179 71.613 Q 484.675 71.125 482.71 70.024 A 12.145 12.145 0 0 1 480.8 68.701 A 9.338 9.338 0 0 1 478.275 65.145 Q 476.9 61.907 476.9 56.801 L 476.9 29.501 L 468.3 29.501 L 468.3 22.401 L 476.9 22.401 L 478 10.501 L 485.3 10.501 L 485.3 22.401 L 499.9 22.401 L 499.9 29.501 L 485.3 29.501 L 485.3 56.801 Q 485.3 60.595 486.538 62.402 A 3.922 3.922 0 0 0 487.2 63.151 Q 488.839 64.575 492.638 64.77 A 24.614 24.614 0 0 0 493.9 64.801 L 499.1 64.801 L 499.1 72.001 Z M 68.1 72.001 L 59.7 72.001 L 59.7 22.401 L 67.3 22.401 L 68 31.901 Q 70.3 27.001 75 24.101 A 18.761 18.761 0 0 1 80.984 21.756 Q 83.581 21.201 86.6 21.201 L 86.6 30.001 L 84.3 30.001 A 21.824 21.824 0 0 0 78.826 30.669 A 19.221 19.221 0 0 0 76.2 31.551 A 12.157 12.157 0 0 0 70.653 36.236 A 15.079 15.079 0 0 0 70.3 36.801 Q 68.679 39.527 68.252 43.774 A 32.342 32.342 0 0 0 68.1 47.001 L 68.1 72.001 Z M 519 72.001 L 510.6 72.001 L 510.6 22.401 L 518.2 22.401 L 518.9 31.901 Q 521.2 27.001 525.9 24.101 A 18.761 18.761 0 0 1 531.884 21.756 Q 534.481 21.201 537.5 21.201 L 537.5 30.001 L 535.2 30.001 A 21.824 21.824 0 0 0 529.726 30.669 A 19.221 19.221 0 0 0 527.1 31.551 A 12.157 12.157 0 0 0 521.553 36.236 A 15.079 15.079 0 0 0 521.2 36.801 Q 519.579 39.527 519.152 43.774 A 32.342 32.342 0 0 0 519 47.001 L 519 72.001 Z M 556.2 72.001 L 547.8 72.001 L 547.8 22.401 L 556.2 22.401 L 556.2 72.001 Z M 228.5 65.901 Q 233.5 65.901 237.35 63.551 Q 241.2 61.201 243.35 57.001 A 19.267 19.267 0 0 0 245.198 51.204 A 25.503 25.503 0 0 0 245.5 47.201 A 24.719 24.719 0 0 0 245.028 42.259 A 18.879 18.879 0 0 0 243.35 37.401 Q 241.2 33.201 237.35 30.851 A 16.107 16.107 0 0 0 230.335 28.584 A 19.999 19.999 0 0 0 228.5 28.501 A 17.463 17.463 0 0 0 223.051 29.33 A 15.608 15.608 0 0 0 219.75 30.851 Q 215.9 33.201 213.75 37.401 A 19.267 19.267 0 0 0 211.902 43.198 A 25.503 25.503 0 0 0 211.6 47.201 A 24.719 24.719 0 0 0 212.072 52.143 A 18.879 18.879 0 0 0 213.75 57.001 Q 215.9 61.201 219.75 63.551 A 16.148 16.148 0 0 0 227.291 65.864 A 19.655 19.655 0 0 0 228.5 65.901 Z M 348.2 65.901 Q 353.2 65.901 357.05 63.551 Q 360.9 61.201 363.05 57.001 A 19.267 19.267 0 0 0 364.898 51.204 A 25.503 25.503 0 0 0 365.2 47.201 A 24.719 24.719 0 0 0 364.728 42.259 A 18.879 18.879 0 0 0 363.05 37.401 Q 360.9 33.201 357.05 30.851 A 16.107 16.107 0 0 0 350.035 28.584 A 19.999 19.999 0 0 0 348.2 28.501 A 17.463 17.463 0 0 0 342.751 29.33 A 15.608 15.608 0 0 0 339.45 30.851 Q 335.6 33.201 333.45 37.401 A 19.267 19.267 0 0 0 331.602 43.198 A 25.503 25.503 0 0 0 331.3 47.201 A 24.719 24.719 0 0 0 331.772 52.143 A 18.879 18.879 0 0 0 333.45 57.001 Q 335.6 61.201 339.45 63.551 A 16.148 16.148 0 0 0 346.991 65.864 A 19.655 19.655 0 0 0 348.2 65.901 Z M 8.4 39.301 L 8.4 65.001 L 24.5 65.001 Q 29.559 65.001 32.989 63.347 A 11.949 11.949 0 0 0 35.6 61.651 A 10.942 10.942 0 0 0 39.3 54.884 A 15.987 15.987 0 0 0 39.5 52.301 A 13.73 13.73 0 0 0 38.823 47.895 A 11.392 11.392 0 0 0 35.4 42.851 A 13.89 13.89 0 0 0 29.735 39.945 Q 27.664 39.402 25.219 39.317 A 26.492 26.492 0 0 0 24.3 39.301 L 8.4 39.301 Z M 8.4 9.001 L 8.4 32.601 L 24 32.601 A 22.861 22.861 0 0 0 27.974 32.278 Q 30.154 31.892 31.882 31.047 A 10.969 10.969 0 0 0 34.3 29.451 A 10.307 10.307 0 0 0 37.702 23.191 A 15.036 15.036 0 0 0 37.9 20.701 A 12.798 12.798 0 0 0 37.325 16.776 A 10.301 10.301 0 0 0 34.35 12.201 Q 30.8 9.001 23.7 9.001 L 8.4 9.001 Z M 100.4 42.601 L 131.6 42.601 A 17.665 17.665 0 0 0 130.812 37.984 A 12.989 12.989 0 0 0 127 32.101 A 15.07 15.07 0 0 0 117.944 28.36 A 19.72 19.72 0 0 0 116.4 28.301 Q 110.4 28.301 105.75 31.951 A 13.568 13.568 0 0 0 101.078 39.023 A 19.712 19.712 0 0 0 100.4 42.601 Z M 274.2 42.601 L 305.4 42.601 A 17.665 17.665 0 0 0 304.612 37.984 A 12.989 12.989 0 0 0 300.8 32.101 A 15.07 15.07 0 0 0 291.744 28.36 A 19.72 19.72 0 0 0 290.2 28.301 Q 284.2 28.301 279.55 31.951 A 13.568 13.568 0 0 0 274.878 39.023 A 19.712 19.712 0 0 0 274.2 42.601 Z M 633 78.401 A 9.337 9.337 0 0 0 633.554 81.697 Q 634.442 84.068 636.753 85.575 A 10.532 10.532 0 0 0 637.2 85.851 A 17.056 17.056 0 0 0 642.09 87.726 Q 644.169 88.193 646.573 88.281 A 30.967 30.967 0 0 0 647.7 88.301 A 23.195 23.195 0 0 0 651.757 87.967 Q 654.028 87.563 655.857 86.671 A 12.3 12.3 0 0 0 657.65 85.601 A 9.341 9.341 0 0 0 660.113 83.057 Q 661.36 81.101 661.399 78.565 A 10.684 10.684 0 0 0 661.4 78.401 A 7.088 7.088 0 0 0 659.338 73.375 A 9.727 9.727 0 0 0 658.8 72.851 A 7.559 7.559 0 0 0 656.745 71.573 Q 654.629 70.646 651.265 70.272 A 38.697 38.697 0 0 0 649.2 70.101 Q 644.989 69.795 641.657 69.371 A 88.091 88.091 0 0 1 639.7 69.101 A 21.191 21.191 0 0 0 637.512 70.438 Q 635.297 71.999 634.368 73.721 A 6.257 6.257 0 0 0 634.3 73.851 A 14.823 14.823 0 0 0 633.56 75.539 Q 633.236 76.435 633.1 77.252 A 6.97 6.97 0 0 0 633 78.401 Z M 184.1 48.701 L 184.1 48.601 L 171.4 48.601 Q 165.262 48.601 162.117 50.355 A 7.536 7.536 0 0 0 160.95 51.151 A 8.77 8.77 0 0 0 158.865 53.622 A 7.87 7.87 0 0 0 157.9 57.501 A 8.619 8.619 0 0 0 158.407 60.516 A 7.551 7.551 0 0 0 160.75 63.751 A 9.43 9.43 0 0 0 164 65.457 Q 165.364 65.88 167.005 66.025 A 20.375 20.375 0 0 0 168.8 66.101 A 15.404 15.404 0 0 0 173.117 65.519 A 12.684 12.684 0 0 0 177.05 63.601 Q 180.5 61.101 182.3 57.101 Q 184.1 53.101 184.1 48.701 Z M 647.6 49.501 A 16.556 16.556 0 0 0 651.132 49.146 Q 654.032 48.513 656.05 46.751 A 8.884 8.884 0 0 0 658.86 41.954 A 13.746 13.746 0 0 0 659.2 38.801 Q 659.2 33.701 656.05 30.951 A 10.703 10.703 0 0 0 651.551 28.655 Q 649.753 28.201 647.6 28.201 Q 643.13 28.201 640.202 30.085 A 9.87 9.87 0 0 0 639.05 30.951 A 8.926 8.926 0 0 0 636.185 35.946 A 13.537 13.537 0 0 0 635.9 38.801 A 13.751 13.751 0 0 0 636.239 41.95 Q 636.934 44.903 639.05 46.751 Q 641.99 49.318 646.891 49.489 A 20.347 20.347 0 0 0 647.6 49.501 Z M 549.876 11.051 A 6.217 6.217 0 0 0 552 11.401 Q 554.4 11.401 556.1 9.751 A 5.449 5.449 0 0 0 557.426 7.758 A 6.037 6.037 0 0 0 557.8 5.601 A 6.647 6.647 0 0 0 557.797 5.415 A 5.24 5.24 0 0 0 556.1 1.601 A 5.768 5.768 0 0 0 552 0.001 A 7.453 7.453 0 0 0 551.534 0.015 A 5.619 5.619 0 0 0 547.85 1.601 A 5.313 5.313 0 0 0 546.6 3.432 A 5.728 5.728 0 0 0 546.2 5.601 A 7.342 7.342 0 0 0 546.206 5.91 A 5.566 5.566 0 0 0 547.85 9.751 A 5.461 5.461 0 0 0 549.876 11.051 Z" vector-effect="non-scaling-stroke"/></g></svg>